<svg xmlns="http://www.w3.org/2000/svg" width="86.734" height="74.742" viewBox="0 0 86.734 74.742"><g transform="translate(13.099 34.566)"><path d="M79.016,242.83a1.694,1.694,0,1,1,1.67-1.418A1.713,1.713,0,0,1,79.016,242.83Z" transform="translate(-77.324 -239.446)" fill="#ff8a00"/></g><g transform="translate(3.301 27.627)"><path d="M59.515,245.6a1.692,1.692,0,0,1-1.075-.384c-1.274-1.045-31.262-25.7-37.253-34.834-.552-.842-1.037-1.639-1.483-2.439a1.694,1.694,0,1,1,2.958-1.651c.406.728.851,1.458,1.358,2.232,5.1,7.771,30,28.622,35.5,33.185,5.372-4.452,29.255-24.433,35.151-32.576H83.518l-3.942,5.8a5.082,5.082,0,0,1-8.736-.562l-2.208-4.361L59.823,223.23a5.071,5.071,0,0,1-4.229,2.265,5.083,5.083,0,0,1-4.85-3.56l-5.7-18.161-2.386,3.073a5.05,5.05,0,0,1-4.014,1.965,1.694,1.694,0,1,1,0-3.388,1.683,1.683,0,0,0,1.338-.655l4.371-5.629a1.694,1.694,0,0,1,2.954.532l6.669,21.249a1.7,1.7,0,0,0,1.377,1.17,1.722,1.722,0,0,0,.24.017A1.69,1.69,0,0,0,57,221.352l10.419-15.64a1.694,1.694,0,0,1,2.921.174l3.52,6.951a1.694,1.694,0,0,0,2.912.187l4.446-6.538a1.694,1.694,0,0,1,1.4-.741H97.745a1.694,1.694,0,0,1,1.47,2.536c-.391.682-.827,1.39-1.3,2.1-5.953,9.055-36.053,33.784-37.331,34.833A1.692,1.692,0,0,1,59.515,245.6Z" transform="translate(-19.489 -198.484)" fill="#b8cc0b"/></g><g transform="translate(0 0)"><path d="M40.517,78.866a1.711,1.711,0,0,1-.24-.017A1.694,1.694,0,0,1,38.9,77.68L32.415,57.018a1.694,1.694,0,0,0-2.954-.532l-7.324,9.431a1.694,1.694,0,0,1-1.338.655H2.307A1.694,1.694,0,0,1,.658,65.264a25.537,25.537,0,0,1-.617-7.277A24.149,24.149,0,0,1,7.2,42.067a22.685,22.685,0,0,1,16-6.673c9.433,0,17.078,7.861,20.129,11.526,2.951-3.689,10.377-11.526,20.2-11.526a22.683,22.683,0,0,1,16,6.673,24.147,24.147,0,0,1,7.161,15.92,25.488,25.488,0,0,1-.7,7.621,1.694,1.694,0,0,1-1.644,1.285H64.641a1.693,1.693,0,0,0-1.4.741l-2.225,3.272a1.694,1.694,0,0,1-2.912-.187l-3.548-7.007a1.694,1.694,0,0,0-2.921-.174L41.926,78.111a1.694,1.694,0,0,1-1.409.755ZM30.792,52.442A5.09,5.09,0,0,1,35.648,56l5.423,17.28L48.815,61.66a5.082,5.082,0,0,1,8.763.521l2.251,4.445.61-.9a5.077,5.077,0,0,1,4.2-2.224H82.983a22.488,22.488,0,0,0,.327-5.338c-.57-10.689-9.444-19.385-19.78-19.385-10.77,0-18.674,11.75-18.752,11.869a1.694,1.694,0,0,1-1.389.759h-.023a1.694,1.694,0,0,1-1.386-.721c-.083-.118-8.506-11.907-18.774-11.907-10.337,0-19.211,8.7-19.781,19.385a22.585,22.585,0,0,0,.269,5.017H19.97l6.816-8.776a5.066,5.066,0,0,1,4.007-1.966Z" transform="translate(0 -35.394)" fill="#ff8a00"/></g></svg>