<svg xmlns="http://www.w3.org/2000/svg" width="50.148" height="50.149" viewBox="0 0 50.148 50.149"><path d="M25.194,345.556h31.76a9.2,9.2,0,0,0,9.194-9.194.836.836,0,0,0-.836-.836H57.646a2.507,2.507,0,1,0-4.727,0H41.666a5.851,5.851,0,1,0-11.214,0H16.836a.836.836,0,0,0-.836.836A9.2,9.2,0,0,0,25.194,345.556Zm29.253-10.865a.836.836,0,1,1,.836.836.836.836,0,0,1-.836-.836Zm-15.494.836a3.32,3.32,0,0,0,.344-.836h.857a4.167,4.167,0,0,1-.265.836Zm-6.237-2.507h-.752a4.154,4.154,0,0,1,.61-1.467l.606.606a3.325,3.325,0,0,0-.36.868A.86.86,0,0,0,32.716,333.019Zm7.438,0H39.3a3.325,3.325,0,0,0-.358-.861l.606-.606a4.154,4.154,0,0,1,.611,1.467Zm-2.4-2.043a3.324,3.324,0,0,0-.861-.358v-.857a4.154,4.154,0,0,1,1.467.61Zm-2.533-.358a3.324,3.324,0,0,0-.861.358l-.606-.606a4.154,4.154,0,0,1,1.467-.61Zm-.836,3.237a1.672,1.672,0,1,1,1.672,1.672A1.672,1.672,0,0,1,34.388,333.855Zm-2.423.836h.751a.854.854,0,0,0,.1-.007,3.319,3.319,0,0,0,.345.843H32.23A4.167,4.167,0,0,1,31.965,334.691ZM64.43,337.2a7.533,7.533,0,0,1-7.476,6.686H25.194a7.533,7.533,0,0,1-7.476-6.686Z" transform="translate(-16 -295.407)" fill="#fff"/><path d="M80.836,433.672h7.522a.836.836,0,1,0,0-1.672H80.836a.836.836,0,1,0,0,1.672Z" transform="translate(-73.314 -388.538)" fill="#fff"/><path d="M184.836,433.672h1.672a.836.836,0,1,0,0-1.672h-1.672a.836.836,0,1,0,0,1.672Z" transform="translate(-166.448 -388.538)" fill="#fff"/><path d="M300.836,187.892a7.2,7.2,0,0,0-1.528,3.382,5.279,5.279,0,0,0-1.187,1.471c-.862,1.566-.965,3.072-.3,4.12a.276.276,0,0,1-.049.067l-.022.023-4.147,4.476a1.972,1.972,0,0,0,2.777,2.8l4.266-3.909.026-.025a.3.3,0,0,1,.263-.08c.078.013.158.024.239.034a4.209,4.209,0,0,0,4.357-.1A5.279,5.279,0,0,0,307,198.963a7.188,7.188,0,0,0,3.382-1.528,5.848,5.848,0,0,0,2.564-4.288,4.153,4.153,0,0,0,.752-1.084,4.009,4.009,0,0,0,.326-2.55c.5-1.9.227-3.491-.772-4.49s-2.588-1.271-4.49-.773a4.008,4.008,0,0,0-2.55.326,4.158,4.158,0,0,0-1.084.752A5.851,5.851,0,0,0,300.836,187.892Zm4.413-.872a.836.836,0,0,0,.847-.285,2.434,2.434,0,0,1,.834-.652,2.315,2.315,0,0,1,1.618-.165.836.836,0,0,0,.456,0c1.387-.4,2.474-.3,3.062.289s.69,1.675.289,3.062a.837.837,0,0,0,0,.456,2.315,2.315,0,0,1-.165,1.618,2.434,2.434,0,0,1-.652.834.836.836,0,0,0-.285.847c.163.665-.5,2-1.9,3.1a5.245,5.245,0,0,1-2.813,1.207.836.836,0,0,0-.654.351,3.484,3.484,0,0,1-1.163,1.009,2.6,2.6,0,0,1-2.684.122.836.836,0,0,0-.5-.2,3.056,3.056,0,0,1-.326-.036,1.973,1.973,0,0,0-1.708.532l-4.258,3.9a.3.3,0,0,1-.42-.428l4.141-4.47a1.989,1.989,0,0,0,.558-1.515.836.836,0,0,0-.2-.5c-.419-.48-.313-1.475.27-2.536a3.483,3.483,0,0,1,1.009-1.163.836.836,0,0,0,.351-.654,5.244,5.244,0,0,1,1.207-2.813c1.091-1.4,2.43-2.063,3.1-1.9Z" transform="translate(-264.118 -166.453)" fill="#fff"/><path d="M365.031,219.8l-1.489,1.489a.836.836,0,1,0,1.182,1.182l1.489-1.489,2.26.251a.851.851,0,0,0,.093.005.836.836,0,0,0,.091-1.667l-.931-.1.818-.818,2.516.5a.836.836,0,1,0,.328-1.639l-1.424-.285.932-.932,1.469.339a.836.836,0,1,0,.376-1.629l-.451-.1,1.3-1.3a.836.836,0,1,0-1.182-1.182l-1.3,1.3-.1-.451a.836.836,0,1,0-1.629.376l.339,1.469-.932.932-.285-1.424a.836.836,0,0,0-1.639.328l.5,2.516-.818.818-.1-.931a.836.836,0,1,0-1.661.185Z" transform="translate(-327.013 -191.687)" fill="#fff"/><path d="M33.892,290.948a4.152,4.152,0,0,0,2.537,1.948,4.179,4.179,0,1,0,1.436-8.2,3.552,3.552,0,0,0,.16-1.285l-.012-.2a.836.836,0,1,0-1.669.1l.012.2a1.862,1.862,0,0,1-.306,1.142l-.737-1.278a.836.836,0,0,0-1.448.835l.737,1.278a1.861,1.861,0,0,1-1.142-.307l-.164-.109a.836.836,0,1,0-.921,1.395l.165.109a3.556,3.556,0,0,0,1.195.508A4.177,4.177,0,0,0,33.892,290.948Zm5.792-3.341a2.507,2.507,0,0,1-4.344,2.505h0a2.507,2.507,0,0,1,4.344-2.505Z" transform="translate(-30.327 -254.592)" fill="#fff"/><path d="M300.386,114.358a.836.836,0,0,0-.863.807l-.007.2a3.556,3.556,0,0,0,.194,1.283A4.176,4.176,0,0,0,296.5,118.8h0a4.179,4.179,0,1,0,7.4.115,3.553,3.553,0,0,0,1.181-.537l.162-.113a.836.836,0,1,0-.958-1.37l-.162.113a1.862,1.862,0,0,1-1.134.337l.7-1.3a.836.836,0,1,0-1.469-.8l-.7,1.3a1.861,1.861,0,0,1-.336-1.134l.007-.2A.836.836,0,0,0,300.386,114.358Zm1.989,7.635a2.507,2.507,0,0,1-4.408-2.391h0a2.51,2.51,0,0,1,3.4-1.009h0A2.51,2.51,0,0,1,302.375,121.992Z" transform="translate(-266.739 -104.081)" fill="#fff"/><path d="M25.948,26.207a5.839,5.839,0,0,0,1.215.837,6.634,6.634,0,0,0,1.965,3.129,6.727,6.727,0,0,0,1.076.786,7.521,7.521,0,0,0,7.11,5.1q.213,0,.428-.012a7.464,7.464,0,0,0,4.6-1.9l2.839,2.539a.836.836,0,1,0,1.114-1.246l-2.839-2.539a7.521,7.521,0,0,0-4.509-11.705,6.727,6.727,0,0,0-.9-.982A6.636,6.636,0,0,0,34.715,18.6a5.851,5.851,0,1,0-8.767,7.608Zm.785-7.147a4.152,4.152,0,0,1,2.882-1.387c.08,0,.159-.007.238-.007a4.179,4.179,0,0,1,3.63,2.118.836.836,0,0,0,.638.419,4.977,4.977,0,0,1,2.807,1.247,5.034,5.034,0,0,1,.831.956.836.836,0,0,0,.554.36,5.851,5.851,0,0,1,3.883,9l-2.114-1.891.362-2.541a.836.836,0,0,0-1.655-.236l-.2,1.437-1.617-1.447.362-2.541a.836.836,0,0,0-1.655-.236l-.205,1.437-1.617-1.446.362-2.541a.836.836,0,1,0-1.655-.236l-.2,1.437-1.951-1.745a.836.836,0,1,0-1.114,1.246l1.951,1.745-1.406.364a.836.836,0,1,0,.419,1.618l2.484-.643L34.357,27l-1.406.364a.836.836,0,1,0,.419,1.618l2.485-.643,1.618,1.447-1.406.364a.836.836,0,1,0,.419,1.618l2.485-.643,2.114,1.891A5.85,5.85,0,0,1,31.7,30.158a.836.836,0,0,0-.419-.511,5.029,5.029,0,0,1-1.042-.72,4.977,4.977,0,0,1-1.551-2.652.836.836,0,0,0-.487-.588,4.179,4.179,0,0,1-1.471-6.628Z" transform="translate(-23.162 -15.994)" fill="#fff"/><path d="M241.57,24.288l4.173,2.782a.836.836,0,0,0,1.159-.232l1.279-1.919a3.761,3.761,0,0,0,2.082-6.89l-2.086-1.391a3.761,3.761,0,0,0-5.559,4.572l-1.28,1.919A.836.836,0,0,0,241.57,24.288Zm2.706-2.553a.836.836,0,0,0,.022-.893,2.089,2.089,0,0,1,2.951-2.813l2.086,1.391a2.09,2.09,0,0,1-1.462,3.807.836.836,0,0,0-.816.363l-1.084,1.625-2.781-1.854Z" transform="translate(-217.67 -16.006)" fill="#fff"/><path d="M218.168,231.936a.836.836,0,0,0,.376.517l4.277,2.618a.836.836,0,0,0,1.149-.277l1.2-1.967a3.761,3.761,0,0,0,1.813-6.966l-2.139-1.309a3.761,3.761,0,0,0-5.378,4.784l-1.2,1.967A.836.836,0,0,0,218.168,231.936Zm2.982-2.138a.836.836,0,0,0-.013-.893,2.09,2.09,0,0,1,2.84-2.926l2.139,1.309a2.09,2.09,0,0,1-1.313,3.86.837.837,0,0,0-.8.395l-1.02,1.666-2.851-1.745Z" transform="translate(-197.026 -202.268)" fill="#fff"/><path d="M242.507,133.015A2.507,2.507,0,1,0,240,130.507,2.507,2.507,0,0,0,242.507,133.015Zm0-3.343a.836.836,0,1,1-.836.836A.836.836,0,0,1,242.507,129.672Z" transform="translate(-216.598 -116.298)" fill="#fff"/><path d="M45.394,204.535a4.87,4.87,0,0,0,2.835.916h.085l1.452-.026a.836.836,0,0,0,.784-1.084l-.432-1.386a4.87,4.87,0,0,0-1.787-2.485,2.5,2.5,0,0,0-2.337-.32l-.009,0a2.507,2.507,0,0,0-.591,4.382Zm1.17-2.814.006,0a.834.834,0,0,1,.781.106,3.187,3.187,0,0,1,1.17,1.626l.1.322-.337.006a3.194,3.194,0,0,1-1.911-.6.836.836,0,0,1,.192-1.458Z" transform="translate(-41.392 -180.771)" fill="#fff"/><path d="M117.015,234.03A5.015,5.015,0,1,0,112,229.015,5.015,5.015,0,0,0,117.015,234.03Zm0-8.358a3.343,3.343,0,1,1-3.343,3.343A3.343,3.343,0,0,1,117.015,225.672Z" transform="translate(-101.97 -202.269)" fill="#fff"/><path d="M136.836,252.179a.834.834,0,0,0,.373-.088l1.3-.649,1.3.649a.836.836,0,1,0,.748-1.5l-1.21-.6v-1.155a.836.836,0,0,0-1.672,0v1.155l-1.21.6a.836.836,0,0,0,.374,1.583Z" transform="translate(-123.463 -223.761)" fill="#fff"/></svg>