<svg xmlns="http://www.w3.org/2000/svg" width="50.899" height="53.491" viewBox="0 0 50.899 53.491"><g transform="translate(0 0)"><path d="M92.272,324.671a.891.891,0,1,0,0-1.783A10.683,10.683,0,0,1,82.4,316.3a.892.892,0,0,0-1.645.688A12.462,12.462,0,0,0,92.272,324.671Z" transform="translate(-73.55 -282.769)" fill="#fff"/><path d="M61.442,134.813H58.674a4.444,4.444,0,0,0-2.328-3.047l1.073-.909a2.715,2.715,0,0,0,.971-2.008,4.5,4.5,0,0,0-1.048-2.94l.323-.323,2.684.537a.891.891,0,0,0,.35-1.748l-1.519-.3,1.082-1.082h2.153a.891.891,0,1,0,0-1.783h-.37l1-1a.891.891,0,0,0-1.261-1.261l-1,1v-.369a.891.891,0,0,0-1.783,0v2.152l-.739.739v-.37a.891.891,0,0,0-1.783,0v2.153l-.4.4a4.5,4.5,0,0,0-2.94-1.048,2.707,2.707,0,0,0-2,.958l-1.351,1.6a4.874,4.874,0,0,0-3.954-2.038,4.821,4.821,0,0,0-2.453.674l-.085-.831a5.983,5.983,0,0,0-11.864.027l-.175,1.7-1.852-1.852a1.784,1.784,0,0,0-2.521,0l-2.883,2.882a16.139,16.139,0,0,1-.932-1.35l-1.22-2.82a1.777,1.777,0,0,0-1.133-1h0l-4.452-1.312a1.783,1.783,0,0,0-2.141,2.418l.346.8a.84.84,0,0,0,.068.157l2.016,4.663c.008.018.021.03.029.047a15.15,15.15,0,0,1,.132,6.5H14.191a1.785,1.785,0,0,0-1.783,1.783v.891a15.173,15.173,0,0,0,15.156,15.156h2.13l-.882,1.783H27.564a2.675,2.675,0,0,0,0,5.349H47.177a2.675,2.675,0,0,0,0-5.349H45.945l-.891-1.783h3.015a15.173,15.173,0,0,0,15.156-15.156V136.6A1.785,1.785,0,0,0,61.442,134.813Zm-4.612,0H52.586c.46-.34.94-.7,1.455-1.094l.746-.632A2.677,2.677,0,0,1,56.83,134.813Zm-7.2-5.711.981-1.157,1.086,1.086a.891.891,0,1,0,1.261-1.261l-1.19-1.19.748-.883a.936.936,0,0,1,.715-.316h0a2.943,2.943,0,0,1,2.077.957l.171.171h0l.17.17a2.954,2.954,0,0,1,.958,2.078.944.944,0,0,1-.33.727L54.2,131.248h0l-1.275,1.082c-.176.134-.335.251-.506.38-.311.235-.62.467-.92.69q-.622.46-1.207.883l-.285.206h0c-.146.1-.3.222-.445.323H45.549l.007-.011c.23-.354.483-.732.751-1.125l.151-.22c.27-.392.553-.8.858-1.225l.012-.017c.307-.43.638-.883.981-1.347l.231-.312C48.889,130.086,49.249,129.605,49.632,129.1Zm-3.792-3.2a3.1,3.1,0,0,1,2.749,1.678l-.347.41c-.368.483-.715.945-1.052,1.4l-.242.327q-.425.575-.815,1.116l-.139.192q-.453.631-.856,1.212l-.127.185q-.334.485-.633.935c-.031.046-.067.1-.1.144l-.6-5.83-.082-.8A3.079,3.079,0,0,1,45.84,125.9ZM32.3,133.03h3.286a.891.891,0,1,0,0-1.783h-3.1l.36-3.513v0l.188-1.835h2.554a.891.891,0,1,0,0-1.783H33.226a4.2,4.2,0,0,1,8.3.052l.361,3.514H39.154a.891.891,0,1,0,0,1.783h2.921l.166,1.619.383,3.731H32.118ZM28.15,125.1l2.878,2.878-.4,3.889-.067.342c-.218-.189-.442-.379-.662-.563a7.944,7.944,0,0,0-.786-.638c-.179-.139-.338-.258-.439-.321-.326-.2-.638-.4-.94-.6-.057-.038-.108-.075-.164-.112-.248-.167-.491-.335-.725-.506-.048-.035-.093-.072-.141-.107-.236-.176-.466-.356-.689-.542-.041-.034-.08-.069-.12-.1-.224-.191-.441-.389-.653-.6l-.057-.056Zm-6.206,1.813a15.009,15.009,0,0,0,2.276,2.7l.1.09c.323.3.656.582,1.008.855l.07.052c.308.237.631.469.966.7.088.06.178.122.267.182.354.237.718.474,1.107.715.082.051.153.113.232.167.2.151.472.376.773.629a6.182,6.182,0,0,1,1.331,1.819H18.521a16.852,16.852,0,0,0-.07-6.393l2.169-.938Zm-5.8-4.084-.006-.015-.376-.869,4.452,1.312.9,2.072-3.274,1.415Zm31.03,33.384a.891.891,0,1,1,0,1.783H27.564a.891.891,0,1,1,0-1.783ZM30.8,154.427l.882-1.783H43.06l.891,1.783Zm30.64-16.939A13.388,13.388,0,0,1,48.069,150.86h-20.5a13.388,13.388,0,0,1-13.373-13.373V136.6H61.442Z" transform="translate(-12.408 -106.284)" fill="#fff"/><path d="M167.2,27.492a.892.892,0,0,0,1.283-1.238,2.338,2.338,0,0,1,0-3.22,4.136,4.136,0,0,0,0-5.7.892.892,0,1,0-1.283,1.238,2.338,2.338,0,0,1,0,3.22A4.137,4.137,0,0,0,167.2,27.492Z" transform="translate(-150.006 -15.283)" fill="#fff"/><path d="M235.462,10.425a.892.892,0,0,0,1.283-1.238,2.338,2.338,0,0,1,0-3.22,4.136,4.136,0,0,0,0-5.7.892.892,0,1,0-1.283,1.238,2.338,2.338,0,0,1,0,3.22A4.137,4.137,0,0,0,235.462,10.425Z" transform="translate(-211.141 0.001)" fill="#fff"/><path d="M303.728,27.492a.892.892,0,1,0,1.283-1.238,2.338,2.338,0,0,1,0-3.22,4.135,4.135,0,0,0,0-5.7.892.892,0,0,0-1.283,1.238,2.338,2.338,0,0,1,0,3.22A4.137,4.137,0,0,0,303.728,27.492Z" transform="translate(-272.275 -15.283)" fill="#fff"/></g></svg>