<svg xmlns="http://www.w3.org/2000/svg" width="50.23" height="50.231" viewBox="0 0 50.23 50.231"><g transform="translate(-547 -221)"><g transform="translate(547 221)"><path d="M40.378,16a25.177,25.177,0,0,0-6.071.741,3.547,3.547,0,0,0-5.464,1.49,4.28,4.28,0,0,0-6.359,5.281A25.072,25.072,0,1,0,40.378,16Zm-8.239,1.672A1.881,1.881,0,1,1,30.417,20.3c-.02-.057-.042-.113-.064-.169a1.878,1.878,0,0,1,1.787-2.463ZM26.379,19.12a2.616,2.616,0,0,1,2.4,1.587c.024.069.049.136.076.2a2.612,2.612,0,1,1-2.479-1.79Zm30.548,38.5A23.4,23.4,0,1,1,23.48,24.882a4.28,4.28,0,0,0,7.064-2.157A3.551,3.551,0,0,0,35.424,18.2a23.4,23.4,0,0,1,21.5,39.422Z" transform="translate(-15.223 -16)" fill="#fff"/><path d="M83.581,112H66.865A10.878,10.878,0,0,0,56,122.865v4.179A10.878,10.878,0,0,0,66.865,137.91h5.915a2.684,2.684,0,0,1,1.124.245,2.733,2.733,0,0,1,1.32,1.307,10.567,10.567,0,0,0,9.483,5.97h1.381a8.367,8.367,0,0,0,8.358-8.358V122.865A10.878,10.878,0,0,0,83.581,112Zm-23.8,5.015h23.3a6.357,6.357,0,0,1,6.357,6.357v7.016a4.186,4.186,0,0,0,3.161,4.053,6.7,6.7,0,0,1-6.5,5.141H84.825a6.716,6.716,0,0,1-6.036-3.808,6.572,6.572,0,0,0-1.363-1.914,6.386,6.386,0,0,0-4.457-1.8h-6.1a9.189,9.189,0,0,1-7.087-15.044Zm26.31,26.746H84.708a8.887,8.887,0,0,1-7.976-5.02,4.409,4.409,0,0,0-2.131-2.105,4.346,4.346,0,0,0-1.82-.4H66.865a9.209,9.209,0,0,1-8.993-7.282,10.863,10.863,0,0,0,8.993,4.775h6.1a4.722,4.722,0,0,1,3.3,1.331,4.907,4.907,0,0,1,1.015,1.431,8.4,8.4,0,0,0,7.545,4.761h1.264a8.347,8.347,0,0,0,6.622-3.267A6.7,6.7,0,0,1,86.089,143.76Zm6.686-11.009a2.511,2.511,0,0,1-1.672-2.364v-7.016a8.028,8.028,0,0,0-8.028-8.028H61.585a9.143,9.143,0,0,1,5.28-1.672H83.581a9.2,9.2,0,0,1,9.194,9.194Z" transform="translate(-51.74 -101.97)" fill="#fff"/><path d="M99.134,200.268A3.134,3.134,0,1,0,96,197.134,3.134,3.134,0,0,0,99.134,200.268Zm0-4.6a1.463,1.463,0,1,1-1.463,1.463A1.463,1.463,0,0,1,99.134,195.672Z" transform="translate(-87.561 -175.403)" fill="#fff"/><path d="M152.274,194.648a.836.836,0,0,0,1.181-.056l8.358-9.194a.836.836,0,1,0-1.237-1.124l-8.358,9.194A.836.836,0,0,0,152.274,194.648Z" transform="translate(-137.711 -166.448)" fill="#fff"/><path d="M208.274,194.648a.836.836,0,0,0,1.181-.056l8.358-9.194a.836.836,0,1,0-1.237-1.124l-8.358,9.194A.836.836,0,0,0,208.274,194.648Z" transform="translate(-187.86 -166.448)" fill="#fff"/><path d="M256.268,209.74a.836.836,0,0,0,1.181-.046l7.674-8.291a.836.836,0,1,0-1.227-1.135l-7.674,8.291A.836.836,0,0,0,256.268,209.74Z" transform="translate(-230.845 -180.776)" fill="#fff"/><path d="M293.384,256.274l-5.167,5.683a.836.836,0,1,0,1.237,1.124l5.167-5.684a.836.836,0,0,0-1.237-1.124Z" transform="translate(-259.502 -230.926)" fill="#fff"/><path d="M224.953,54.857c.209-.03.419-.056.628-.081l-.162.215a.836.836,0,0,0,1.337,1L227.8,54.6c.524-.019,1.047-.021,1.569-.01l-.071.062a.836.836,0,0,0,1.1,1.258l1.328-1.162q.57.064,1.137.152l-.174.13a.836.836,0,0,0,1,1.337l1.372-1.029c.358.087.715.179,1.072.281l.168.048a.836.836,0,1,0,.46-1.607l-.168-.048c-.4-.113-.791-.215-1.189-.31l-.961-1.748a.836.836,0,0,0-1.465.806l.282.513q-.628-.1-1.259-.174l-1.518-1.8a.836.836,0,1,0-1.279,1.077l.467.555q-1-.032-2.005.005L226.3,51.385a.836.836,0,0,0-1.249,1.111l.532.6c-.287.032-.574.068-.861.109a.836.836,0,1,0,.236,1.655Z" transform="translate(-202.187 -47.343)" fill="#fff"/></g></g></svg>