<svg xmlns="http://www.w3.org/2000/svg" width="49.925" height="53.492" viewBox="0 0 49.925 53.492"><g transform="translate(0 0)"><path d="M66.734,31.573a.892.892,0,0,0-.63-.261H63.385a8.556,8.556,0,0,0-5.809-12.253A4.775,4.775,0,0,1,60.144,17a.892.892,0,0,0-.562-1.692,6.655,6.655,0,0,0-3.974,3.582,8.343,8.343,0,0,0-3.472.865A12.915,12.915,0,0,0,45.1,17.922a14.456,14.456,0,0,0-9.1,3.072,7.146,7.146,0,0,1,.328-4.028,6.008,6.008,0,0,0,.027-4.031,4.46,4.46,0,0,0-4.484-3.018h-.022a4.334,4.334,0,0,0-.448.028,7.265,7.265,0,0,0-.63-1.036c3.79-.593,6.692-3.476,6.808-6.986a.894.894,0,0,0-.258-.657A.838.838,0,0,0,36.661,1c-3.982.1-7.25,2.71-7.89,6.108a5.575,5.575,0,0,0-2.786-.759.891.891,0,0,0,0,1.783,4.3,4.3,0,0,1,3.654,2.294,7.713,7.713,0,0,0-4.3,5.563A6.765,6.765,0,0,1,23.2,19.628c-1.844,1.551-5.232,5.658-5.231,7.658a6.881,6.881,0,0,0,.989,4.026h-1a.891.891,0,0,0-.891.891v1.783A16.961,16.961,0,0,0,32.226,50.829v2.027a1.636,1.636,0,0,0,1.635,1.635H50.186a1.655,1.655,0,0,0,1.653-1.653V50.829A16.961,16.961,0,0,0,67,33.986V32.2A.892.892,0,0,0,66.734,31.573Zm-11.8-10.839a13.889,13.889,0,0,0-.419,3.291,4.249,4.249,0,0,1-1.26-.558.891.891,0,0,0-1.05,1.441,6.329,6.329,0,0,0,3.172,1.044c.02,0,.038.011.059.011s.045,0,.067,0c.049,0,.093.009.143.009a6.07,6.07,0,0,0,3.339-1.03.892.892,0,0,0-.968-1.5,4.485,4.485,0,0,1-1.715.679,11.864,11.864,0,0,1,.5-3.379,6.772,6.772,0,0,1,4.511,10.572H50.387a6.772,6.772,0,0,1,4.546-10.578ZM45.1,19.7a11.424,11.424,0,0,1,5.337,1.157,8.565,8.565,0,0,0-2.118,10.451H34.671a6.9,6.9,0,0,1-.663-2.933C34.009,23.6,38.984,19.7,45.1,19.7ZM35.648,2.884A6.106,6.106,0,0,1,30.579,7.14,6.106,6.106,0,0,1,35.648,2.884ZM19.754,27.345c0-1.005,2.421-4.523,4.6-6.351a8.532,8.532,0,0,0,2.718-4.581,5.885,5.885,0,0,1,3.216-4.32,6.32,6.32,0,0,1,.158,1.39.891.891,0,1,0,1.783,0,8.053,8.053,0,0,0-.2-1.774,2.654,2.654,0,0,1,2.655,1.845,4.315,4.315,0,0,1-.046,2.847c-.6,1.792-1.029,4.172,0,5.918a9.144,9.144,0,0,0-2.4,6.061,8.574,8.574,0,0,0,.533,2.933H21.936C19.568,30.88,19.743,27.544,19.754,27.345Zm30.3,25.364H34.009V50.925H50.056ZM65.212,33.987A15.173,15.173,0,0,1,50.056,49.143H34.009A15.173,15.173,0,0,1,18.853,33.987V33.1H65.212Z" transform="translate(-17.07 -1)" fill="#fff"/><path d="M85.08,349.461a.891.891,0,0,0,0-1.783,11.609,11.609,0,0,1-10.732-7.105.892.892,0,0,0-1.644.692A13.39,13.39,0,0,0,85.08,349.461Z" transform="translate(-66.829 -304.607)" fill="#fff"/><path d="M222.761,233.337a.883.883,0,1,0-.633-.259A.939.939,0,0,0,222.761,233.337Z" transform="translate(-200.473 -207.482)" fill="#fff"/><path d="M205.059,258.528a.922.922,0,0,0,.294.187.892.892,0,0,0,.339.071,1.244,1.244,0,0,0,.178-.018.58.58,0,0,0,.161-.054.492.492,0,0,0,.151-.081.845.845,0,0,0,.143-.107.929.929,0,0,0,.187-.294.893.893,0,0,0,.071-.339,1.214,1.214,0,0,0-.018-.178.582.582,0,0,0-.054-.161.681.681,0,0,0-.081-.16l-.107-.134c-.045-.036-.089-.071-.143-.107a.492.492,0,0,0-.151-.081.563.563,0,0,0-.161-.053.9.9,0,0,0-1.07.874.89.89,0,0,0,.071.339A.926.926,0,0,0,205.059,258.528Z" transform="translate(-185.187 -230.257)" fill="#fff"/><path d="M239.007,258.251a.68.68,0,0,0,.081.161,1.42,1.42,0,0,0,.107.134.938.938,0,0,0,.633.259,1.382,1.382,0,0,0,.178-.018.582.582,0,0,0,.161-.054.492.492,0,0,0,.151-.081c.054-.035.1-.071.143-.107a.939.939,0,0,0,.259-.633,1.383,1.383,0,0,0-.018-.178.583.583,0,0,0-.054-.161.681.681,0,0,0-.081-.16l-.107-.134c-.045-.036-.089-.071-.143-.107a.492.492,0,0,0-.151-.081.562.562,0,0,0-.161-.053.924.924,0,0,0-.811.241,1.336,1.336,0,0,0-.107.134.688.688,0,0,0-.081.16.566.566,0,0,0-.053.161,1.312,1.312,0,0,0-.018.178,1.063,1.063,0,0,0,.018.169A.538.538,0,0,0,239.007,258.251Z" transform="translate(-215.757 -230.275)" fill="#fff"/></g></svg>