<svg xmlns="http://www.w3.org/2000/svg" width="53.491" height="52.562" viewBox="0 0 53.491 52.562"><path d="M243.7,168.635c-7.165,0-12.994,6.445-12.994,14.367s5.829,14.367,12.994,14.367a12.1,12.1,0,0,0,7.744-2.828.784.784,0,0,0-.995-1.211A10.545,10.545,0,0,1,243.7,195.8c-6.3,0-11.427-5.742-11.427-12.8s5.126-12.8,11.427-12.8,11.427,5.742,11.427,12.8a13.768,13.768,0,0,1-2.676,8.23.784.784,0,1,0,1.253.941,15.343,15.343,0,0,0,2.99-9.17C256.692,175.08,250.863,168.635,243.7,168.635Z" transform="translate(-206.602 -151.481)" fill="#fff"/><path d="M50.563,25.61a16.742,16.742,0,0,0-7.552-6.577,4.714,4.714,0,0,1-2.16-1.924,4.39,4.39,0,0,0-7.509,0,4.821,4.821,0,0,1-1.68,1.682A17.346,17.346,0,0,0,22.309,8.484a4.714,4.714,0,0,1-2.16-1.924,4.39,4.39,0,0,0-7.509,0,4.713,4.713,0,0,1-2.16,1.924,15.708,15.708,0,0,0-2.1,1.093.784.784,0,0,0,.827,1.331A14.141,14.141,0,0,1,11.1,9.924,6.27,6.27,0,0,0,13.98,7.373a2.823,2.823,0,0,1,4.83,0,6.271,6.271,0,0,0,2.883,2.552c.1.044.2.09.306.136l-3.277,2.948a5.047,5.047,0,0,0-1.664,3.619l0,.187a.784.784,0,0,0,.765.8h.019a.784.784,0,0,0,.783-.765l0-.187a3.474,3.474,0,0,1,1.145-2.491l3.7-3.332a16.14,16.14,0,0,1,6.768,8.634,16.522,16.522,0,0,0-5.252,4.252l-1.405-2.434a2.016,2.016,0,0,1-.223-1.421l.507-2.392a.784.784,0,1,0-1.533-.325l-.507,2.392a3.583,3.583,0,0,0,.4,2.528l1.742,3.018q-.172.255-.338.517a19.155,19.155,0,0,0-2.742,7.608h-.063a2.238,2.238,0,0,1-1.462-.9l-2.332-3.242a.784.784,0,0,0-1.272.915l2.332,3.243a3.812,3.812,0,0,0,2.58,1.546c.022,0,.044,0,.066,0q-.034.588-.035,1.182a19.991,19.991,0,0,0,.659,5.1,6.3,6.3,0,0,0-2.533,2.43,2.823,2.823,0,0,1-4.867,0,6.254,6.254,0,0,0-2.9-2.607A15.2,15.2,0,0,1,4.243,34.92c-.1-.153-.188-.308-.279-.464a3.12,3.12,0,0,1,2.309-.54l3.568.583a.784.784,0,0,0,.253-1.547l-3.568-.583a4.694,4.694,0,0,0-3.291.69,18.261,18.261,0,0,1,1.088-17.27l1.661,3.2a5.9,5.9,0,0,0,3.548,3.007l3.733,1.14a.784.784,0,0,0,.458-1.5l-3.733-1.14a4.329,4.329,0,0,1-2.6-2.21l-.007-.014L5.346,14.36a15.883,15.883,0,0,1,1.519-1.646.784.784,0,1,0-1.073-1.142A18.981,18.981,0,0,0,0,25.417,19.419,19.419,0,0,0,2.915,35.752a16.756,16.756,0,0,0,7.521,6.579,4.7,4.7,0,0,1,2.175,1.964,4.39,4.39,0,0,0,7.567,0A4.8,4.8,0,0,1,21.831,42.6a18.818,18.818,0,0,0,1.785,3.7,16.755,16.755,0,0,0,7.521,6.579,4.7,4.7,0,0,1,2.175,1.964,4.39,4.39,0,0,0,7.567,0,4.7,4.7,0,0,1,2.175-1.964A16.756,16.756,0,0,0,50.576,46.3a19.778,19.778,0,0,0-.013-20.691ZM49.248,45.469a15.2,15.2,0,0,1-6.814,5.973,6.254,6.254,0,0,0-2.9,2.607,2.823,2.823,0,0,1-4.867,0,6.255,6.255,0,0,0-2.9-2.607,15.2,15.2,0,0,1-6.814-5.973,18.212,18.212,0,0,1,.012-19.025,15.184,15.184,0,0,1,6.842-5.97,6.271,6.271,0,0,0,2.883-2.552,2.823,2.823,0,0,1,4.83,0,6.271,6.271,0,0,0,2.883,2.552,15.183,15.183,0,0,1,6.842,5.97,18.213,18.213,0,0,1,.012,19.025Z" transform="translate(0 -4.445)" fill="#fff"/><path d="M273.723,237.393a3.629,3.629,0,0,0,6.11,1.434,3.627,3.627,0,0,0,6.107-1.434,3.628,3.628,0,0,0,1.875-5.964,3.721,3.721,0,0,0,.575-2,3.762,3.762,0,0,0-2.824-3.629,3.627,3.627,0,0,0-5.733-2.107A3.628,3.628,0,0,0,274.1,225.8a3.762,3.762,0,0,0-2.824,3.629,3.72,3.72,0,0,0,.575,2,3.628,3.628,0,0,0,1.875,5.964Zm8.3-12.867a2.054,2.054,0,0,1,2.06,1.983.784.784,0,0,0,.726.752,2.177,2.177,0,0,1,1.382,3.707.784.784,0,0,0,.108,1.2,2.061,2.061,0,0,1-1.052,3.75.783.783,0,0,0-.731.683,2.061,2.061,0,0,1-4.089-.006.783.783,0,0,0-.7-.684,2.061,2.061,0,0,1-.976-3.744.784.784,0,0,0,.108-1.2,2.177,2.177,0,0,1,.649-3.521.783.783,0,0,0,.46-.754c0-.035,0-.071,0-.107A2.064,2.064,0,0,1,282.021,224.526Zm-8.547,6.443a2.177,2.177,0,0,1,1.382-3.707.784.784,0,0,0,.726-.752,2.062,2.062,0,0,1,3.233-1.618,3.6,3.6,0,0,0-.408,1.37,3.746,3.746,0,0,0-1.18,5.167,3.628,3.628,0,0,0,1.761,5.936.777.777,0,0,0-.05.07,2.061,2.061,0,0,1-3.788-.836.784.784,0,0,0-.731-.683,2.061,2.061,0,0,1-1.052-3.75.784.784,0,0,0,.107-1.2Z" transform="translate(-242.61 -200.13)" fill="#fff"/></svg>