<svg xmlns="http://www.w3.org/2000/svg" width="52.321" height="53.492" viewBox="0 0 52.321 53.492"><g transform="translate(0 0)"><path d="M29.258,9.807H55.246a2.609,2.609,0,0,0,1.879-.779A2.641,2.641,0,0,0,57.911,6.9a2.743,2.743,0,0,0-2.764-2.441L29.255,4.5a2.675,2.675,0,0,0-2.537-1.83H19.284L18.655.63a.892.892,0,0,0-1.7.524l.468,1.521h-1.7L15.089.63a.892.892,0,1,0-1.7.524l.468,1.521h-1.4a.891.891,0,1,0,0,1.783H14.4l.549,1.783h-2.5a.891.891,0,1,0,0,1.783H15.5l.549,1.783H12.453a.891.891,0,1,0,0,1.783H16.6l.355,1.154a.892.892,0,1,0,1.7-.524l-.194-.629h1.718a17.96,17.96,0,0,0,1.565,3.556c.76,1.292,2.825,4.395,5.582,5.314a2.873,2.873,0,0,1,1.887,1.856c-.236-.013-.472-.027-.714-.027a13.475,13.475,0,0,0-9.666,3.8c-6.32,1.216-8.958,6.763-9.689,8.677H8.274a2.674,2.674,0,0,0-2.366,3.92l4.782,9.086a10.67,10.67,0,0,0,9.466,5.716H42.194a10.67,10.67,0,0,0,9.466-5.716l4.782-9.086a2.674,2.674,0,0,0-2.364-3.92c-.946-2.358-4.831-10.7-12.428-10.7a11.517,11.517,0,0,0-5.1,1.15,13.3,13.3,0,0,0-5.43-2.648,4.748,4.748,0,0,0-3.225-3.8c-2.247-.749-4.1-3.654-4.609-4.526a15.966,15.966,0,0,1-1.206-2.652h4.641A2.7,2.7,0,0,0,29.258,9.807ZM21.4,27.638c6.519,0,9.835,4.821,11.053,7.132H30.4a10.543,10.543,0,0,0-9-5.349,9.207,9.207,0,0,0-8.383,5.349H11.059A11.08,11.08,0,0,1,21.4,27.638Zm6.727.015c.125,0,.248-.015.375-.015,4.387,0,7.424,4.308,8.945,7.132H34.432A16.718,16.718,0,0,0,28.126,27.652Zm.1,7.117H15.059A7.2,7.2,0,0,1,21.4,31.2,8.483,8.483,0,0,1,28.227,34.77Zm26.612,2.214a.877.877,0,0,1,.026.876l-4.782,9.086a8.892,8.892,0,0,1-7.889,4.763H20.157a8.892,8.892,0,0,1-7.889-4.763L7.486,37.859a.892.892,0,0,1,.789-1.307H49.581l.015,0,.01,0h4.47A.876.876,0,0,1,54.839,36.983ZM43.374,34.77A27.966,27.966,0,0,0,40.5,29.511a7.327,7.327,0,0,1,1.154-.09c3,0,5.262,3.13,6.488,5.349Zm-1.724-8.915c5.84,0,9.281,6.25,10.482,8.915H50.154c-1.43-2.881-4.259-7.132-8.5-7.132a8.622,8.622,0,0,0-2.34.315c-.408-.491-.849-.974-1.32-1.441A10.04,10.04,0,0,1,41.651,25.854Zm-.227,8.915h-1.97c-1.5-3.046-5.153-8.915-10.952-8.915a11.194,11.194,0,0,0-3.393.51,13.365,13.365,0,0,0-3.151-.493,11.959,11.959,0,0,1,6.544-1.8C35.819,24.071,40.048,31.757,41.424,34.77ZM16.815,6.241l-.549-1.783h1.7l.549,1.783Zm1.1,3.566-.549-1.783h1.7l.549,1.783Zm4.348,0h-.781L20.93,8.024h1.33A.871.871,0,0,1,22.9,8.3a.857.857,0,0,1,.256.619A.892.892,0,0,1,22.26,9.807Zm0-3.566H20.382l-.549-1.783H22.26a.871.871,0,0,1,.636.273.857.857,0,0,1,.256.619A.892.892,0,0,1,22.26,6.241Zm1.991.893a2.664,2.664,0,0,0,.683-1.784,2.693,2.693,0,0,0-.151-.891h1.934a.893.893,0,0,1,.846.613,1.761,1.761,0,0,0,1.694,1.17H55.146a.966.966,0,0,1,.988.809h0a.871.871,0,0,1-.269.716.856.856,0,0,1-.619.257H29.258a1.761,1.761,0,0,0-1.694,1.171.893.893,0,0,1-.846.612H24.782a2.674,2.674,0,0,0,.152-.891A2.616,2.616,0,0,0,24.251,7.134Z" transform="translate(-5.6 0)" fill="#fff"/></g></svg>